<mxfile host="app.diagrams.net" agent="Mozilla/5.0 (Windows NT 10.0; Win64; x64) AppleWebKit/537.36 (KHTML, like Gecko) Chrome/133.0.0.0 Safari/537.36" version="26.0.16">
  <diagram id="C5RBs43oDa-KdzZeNtuy" name="Page-1">
    <mxGraphModel dx="1434" dy="780" grid="1" gridSize="10" guides="1" tooltips="1" connect="1" arrows="1" fold="1" page="1" pageScale="1" pageWidth="827" pageHeight="1169" math="0" shadow="0">
      <root>
        <mxCell id="WIyWlLk6GJQsqaUBKTNV-0" />
        <mxCell id="WIyWlLk6GJQsqaUBKTNV-1" parent="WIyWlLk6GJQsqaUBKTNV-0" />
        <mxCell id="1vW7YTsPECzE2WoDe3he-23" value="&lt;h1 style=&quot;margin-top: 0px;&quot;&gt;Ordre des modifications&lt;/h1&gt;&lt;p&gt;&lt;br&gt;&lt;/p&gt;" style="text;html=1;whiteSpace=wrap;overflow=hidden;rounded=0;" vertex="1" parent="WIyWlLk6GJQsqaUBKTNV-1">
          <mxGeometry x="215" y="5" width="320" height="250" as="geometry" />
        </mxCell>
        <mxCell id="1vW7YTsPECzE2WoDe3he-43" value="" style="group" vertex="1" connectable="0" parent="WIyWlLk6GJQsqaUBKTNV-1">
          <mxGeometry y="50" width="220" height="160" as="geometry" />
        </mxCell>
        <mxCell id="1vW7YTsPECzE2WoDe3he-31" value="" style="verticalLabelPosition=bottom;verticalAlign=top;html=1;shape=mxgraph.basic.acute_triangle;dx=0.5;" vertex="1" parent="1vW7YTsPECzE2WoDe3he-43">
          <mxGeometry width="220" height="160" as="geometry" />
        </mxCell>
        <mxCell id="1vW7YTsPECzE2WoDe3he-32" value="&#xa;&lt;span style=&quot;color: rgb(0, 0, 0); font-family: Helvetica; font-size: 12px; font-style: normal; font-variant-ligatures: normal; font-variant-caps: normal; font-weight: 400; letter-spacing: normal; orphans: 2; text-align: center; text-indent: 0px; text-transform: none; widows: 2; word-spacing: 0px; -webkit-text-stroke-width: 0px; white-space: normal; background-color: rgb(251, 251, 251); text-decoration-thickness: initial; text-decoration-style: initial; text-decoration-color: initial; display: inline !important; float: none;&quot;&gt;modification de schema centrale&lt;/span&gt;&#xa;&#xa;" style="text;html=1;align=center;verticalAlign=middle;whiteSpace=wrap;rounded=0;" vertex="1" parent="1vW7YTsPECzE2WoDe3he-43">
          <mxGeometry x="45" y="100" width="130" height="30" as="geometry" />
        </mxCell>
        <mxCell id="1vW7YTsPECzE2WoDe3he-33" value="modification de schéma global" style="text;html=1;align=center;verticalAlign=middle;whiteSpace=wrap;rounded=0;" vertex="1" parent="1vW7YTsPECzE2WoDe3he-43">
          <mxGeometry x="7" y="130" width="210" height="30" as="geometry" />
        </mxCell>
        <mxCell id="1vW7YTsPECzE2WoDe3he-34" value="&lt;br&gt;&lt;span style=&quot;color: rgb(0, 0, 0); font-family: Helvetica; font-size: 12px; font-style: normal; font-variant-ligatures: normal; font-variant-caps: normal; font-weight: 400; letter-spacing: normal; orphans: 2; text-align: center; text-indent: 0px; text-transform: none; widows: 2; word-spacing: 0px; -webkit-text-stroke-width: 0px; white-space: normal; background-color: rgb(251, 251, 251); text-decoration-thickness: initial; text-decoration-style: initial; text-decoration-color: initial; float: none; display: inline !important;&quot;&gt;modification de magasin&lt;/span&gt;" style="text;html=1;align=center;verticalAlign=middle;whiteSpace=wrap;rounded=0;" vertex="1" parent="1vW7YTsPECzE2WoDe3he-43">
          <mxGeometry x="72.5" y="40" width="75" height="30" as="geometry" />
        </mxCell>
        <mxCell id="1vW7YTsPECzE2WoDe3he-41" style="rounded=0;orthogonalLoop=1;jettySize=auto;html=1;exitX=0;exitY=0;exitDx=55;exitDy=80;exitPerimeter=0;entryX=0;entryY=0;entryDx=165;entryDy=80;entryPerimeter=0;endArrow=none;startFill=0;" edge="1" parent="1vW7YTsPECzE2WoDe3he-43" source="1vW7YTsPECzE2WoDe3he-31" target="1vW7YTsPECzE2WoDe3he-31">
          <mxGeometry relative="1" as="geometry" />
        </mxCell>
        <mxCell id="1vW7YTsPECzE2WoDe3he-42" value="" style="endArrow=none;html=1;rounded=0;exitX=0.127;exitY=0.75;exitDx=0;exitDy=0;exitPerimeter=0;" edge="1" parent="1vW7YTsPECzE2WoDe3he-43" source="1vW7YTsPECzE2WoDe3he-31">
          <mxGeometry width="50" height="50" relative="1" as="geometry">
            <mxPoint x="-430" y="80" as="sourcePoint" />
            <mxPoint x="190" y="120" as="targetPoint" />
          </mxGeometry>
        </mxCell>
        <mxCell id="1vW7YTsPECzE2WoDe3he-44" value="" style="rounded=0;whiteSpace=wrap;html=1;fillColor=#b0e3e6;strokeColor=#0e8088;" vertex="1" parent="WIyWlLk6GJQsqaUBKTNV-1">
          <mxGeometry x="435" y="105" width="30" height="20" as="geometry" />
        </mxCell>
        <mxCell id="1vW7YTsPECzE2WoDe3he-45" value="" style="rounded=0;whiteSpace=wrap;html=1;fillColor=#d5e8d4;strokeColor=#82b366;" vertex="1" parent="WIyWlLk6GJQsqaUBKTNV-1">
          <mxGeometry x="435" y="145" width="30" height="20" as="geometry" />
        </mxCell>
        <mxCell id="1vW7YTsPECzE2WoDe3he-46" value="impacté par la modification 1" style="text;html=1;align=center;verticalAlign=middle;whiteSpace=wrap;rounded=0;" vertex="1" parent="WIyWlLk6GJQsqaUBKTNV-1">
          <mxGeometry x="465" y="105" width="170" height="30" as="geometry" />
        </mxCell>
        <mxCell id="1vW7YTsPECzE2WoDe3he-47" value="impacté par la modification 2" style="text;html=1;align=center;verticalAlign=middle;whiteSpace=wrap;rounded=0;" vertex="1" parent="WIyWlLk6GJQsqaUBKTNV-1">
          <mxGeometry x="465" y="140" width="170" height="30" as="geometry" />
        </mxCell>
        <mxCell id="1vW7YTsPECzE2WoDe3he-50" value="" style="group" vertex="1" connectable="0" parent="WIyWlLk6GJQsqaUBKTNV-1">
          <mxGeometry x="320" y="230" width="440" height="240" as="geometry" />
        </mxCell>
        <mxCell id="1vW7YTsPECzE2WoDe3he-8" style="edgeStyle=orthogonalEdgeStyle;rounded=0;orthogonalLoop=1;jettySize=auto;html=1;exitX=0.5;exitY=1;exitDx=0;exitDy=0;" edge="1" parent="1vW7YTsPECzE2WoDe3he-50" source="WIyWlLk6GJQsqaUBKTNV-3" target="1vW7YTsPECzE2WoDe3he-1">
          <mxGeometry relative="1" as="geometry" />
        </mxCell>
        <mxCell id="1vW7YTsPECzE2WoDe3he-9" value="REPERCUSSIONS" style="edgeLabel;html=1;align=center;verticalAlign=middle;resizable=0;points=[];" vertex="1" connectable="0" parent="1vW7YTsPECzE2WoDe3he-8">
          <mxGeometry x="0.15" y="1" relative="1" as="geometry">
            <mxPoint as="offset" />
          </mxGeometry>
        </mxCell>
        <mxCell id="1vW7YTsPECzE2WoDe3he-10" style="edgeStyle=orthogonalEdgeStyle;rounded=0;orthogonalLoop=1;jettySize=auto;html=1;exitX=0.5;exitY=1;exitDx=0;exitDy=0;" edge="1" parent="1vW7YTsPECzE2WoDe3he-50" source="WIyWlLk6GJQsqaUBKTNV-3" target="1vW7YTsPECzE2WoDe3he-2">
          <mxGeometry relative="1" as="geometry" />
        </mxCell>
        <mxCell id="1vW7YTsPECzE2WoDe3he-11" value="REPERCUSSIONS" style="edgeLabel;html=1;align=center;verticalAlign=middle;resizable=0;points=[];" vertex="1" connectable="0" parent="1vW7YTsPECzE2WoDe3he-10">
          <mxGeometry x="0.1" y="2" relative="1" as="geometry">
            <mxPoint as="offset" />
          </mxGeometry>
        </mxCell>
        <mxCell id="1vW7YTsPECzE2WoDe3he-54" style="edgeStyle=orthogonalEdgeStyle;rounded=0;orthogonalLoop=1;jettySize=auto;html=1;exitX=0.5;exitY=1;exitDx=0;exitDy=0;strokeColor=#FF0000;endArrow=cross;endFill=0;" edge="1" parent="1vW7YTsPECzE2WoDe3he-50" source="WIyWlLk6GJQsqaUBKTNV-3">
          <mxGeometry relative="1" as="geometry">
            <mxPoint x="232" y="200" as="targetPoint" />
          </mxGeometry>
        </mxCell>
        <mxCell id="WIyWlLk6GJQsqaUBKTNV-3" value="SCHEMA GLOBAL 1" style="rounded=1;whiteSpace=wrap;html=1;fontSize=12;glass=0;strokeWidth=1;shadow=0;fillColor=#b0e3e6;strokeColor=#0e8088;" parent="1vW7YTsPECzE2WoDe3he-50" vertex="1">
          <mxGeometry x="173.23404255319144" y="36.363636363636374" width="117.44680851063829" height="36.36363636363636" as="geometry" />
        </mxCell>
        <mxCell id="1vW7YTsPECzE2WoDe3he-21" value="MODIFICATION D&#39;UN SCHEMA GLOBAL" style="swimlane;whiteSpace=wrap;html=1;fillColor=#bac8d3;strokeColor=#23445d;" vertex="1" parent="1vW7YTsPECzE2WoDe3he-50">
          <mxGeometry width="440" height="240" as="geometry" />
        </mxCell>
        <mxCell id="1vW7YTsPECzE2WoDe3he-2" value="SCHEMA CENTRALE 2" style="rounded=1;whiteSpace=wrap;html=1;fontSize=12;glass=0;strokeWidth=1;shadow=0;fillColor=#b0e3e6;strokeColor=#0e8088;" vertex="1" parent="1vW7YTsPECzE2WoDe3he-21">
          <mxGeometry x="290.6808510638298" y="130.00454545454545" width="117.44680851063829" height="36.36363636363636" as="geometry" />
        </mxCell>
        <mxCell id="1vW7YTsPECzE2WoDe3he-1" value="SCHEMA CENTRALE1" style="rounded=1;whiteSpace=wrap;html=1;fontSize=12;glass=0;strokeWidth=1;shadow=0;fillColor=#b0e3e6;strokeColor=#0e8088;" vertex="1" parent="1vW7YTsPECzE2WoDe3he-21">
          <mxGeometry x="55.787234042553166" y="130.00454545454545" width="117.44680851063829" height="36.36363636363636" as="geometry" />
        </mxCell>
        <mxCell id="1vW7YTsPECzE2WoDe3he-53" value="MAGASINS" style="rounded=1;whiteSpace=wrap;html=1;fontSize=12;glass=0;strokeWidth=1;shadow=0;" vertex="1" parent="1vW7YTsPECzE2WoDe3he-21">
          <mxGeometry x="178.33851063829786" y="200.00181818181818" width="112.34042553191489" height="33.63636363636364" as="geometry" />
        </mxCell>
        <mxCell id="1vW7YTsPECzE2WoDe3he-14" value="" style="verticalLabelPosition=bottom;verticalAlign=top;html=1;shape=mxgraph.basic.x;fillColor=#FF0000;movable=1;resizable=1;rotatable=1;deletable=1;editable=1;locked=0;connectable=1;" vertex="1" parent="1vW7YTsPECzE2WoDe3he-21">
          <mxGeometry x="219.05999999999995" y="133.52999999999997" width="30.89" height="29.32" as="geometry" />
        </mxCell>
        <mxCell id="1vW7YTsPECzE2WoDe3he-51" value="" style="rounded=0;whiteSpace=wrap;html=1;" vertex="1" parent="WIyWlLk6GJQsqaUBKTNV-1">
          <mxGeometry x="435" y="75" width="30" height="20" as="geometry" />
        </mxCell>
        <mxCell id="1vW7YTsPECzE2WoDe3he-52" value="non impacté par la modification" style="text;html=1;align=center;verticalAlign=middle;whiteSpace=wrap;rounded=0;" vertex="1" parent="WIyWlLk6GJQsqaUBKTNV-1">
          <mxGeometry x="475" y="70" width="170" height="30" as="geometry" />
        </mxCell>
        <mxCell id="1vW7YTsPECzE2WoDe3he-22" value="MODIFICATION D&#39;UN SCHEMA CENTRAL" style="swimlane;whiteSpace=wrap;html=1;fillColor=#bac8d3;strokeColor=#23445d;" vertex="1" parent="WIyWlLk6GJQsqaUBKTNV-1">
          <mxGeometry x="320" y="564.09" width="440" height="225.91" as="geometry" />
        </mxCell>
        <mxCell id="1vW7YTsPECzE2WoDe3he-12" value="SCHEMA CENTRALE 2" style="rounded=1;whiteSpace=wrap;html=1;fontSize=12;glass=0;strokeWidth=1;shadow=0;fillColor=#d5e8d4;strokeColor=#82b366;" vertex="1" parent="1vW7YTsPECzE2WoDe3he-22">
          <mxGeometry x="280.8510638297872" y="121.93181818181819" width="112.34042553191489" height="33.63636363636364" as="geometry" />
        </mxCell>
        <mxCell id="1vW7YTsPECzE2WoDe3he-16" value="SCHEMA CENTRALE1" style="rounded=1;whiteSpace=wrap;html=1;fontSize=12;glass=0;strokeWidth=1;shadow=0;" vertex="1" parent="1vW7YTsPECzE2WoDe3he-22">
          <mxGeometry x="46.808510638297875" y="121.93181818181819" width="112.34042553191489" height="33.63636363636364" as="geometry" />
        </mxCell>
        <mxCell id="1vW7YTsPECzE2WoDe3he-17" value="SCHEMA GLOBAL 1" style="rounded=1;whiteSpace=wrap;html=1;fontSize=12;glass=0;strokeWidth=1;shadow=0;" vertex="1" parent="1vW7YTsPECzE2WoDe3he-22">
          <mxGeometry x="163.83" y="37.84" width="116.17" height="33.64" as="geometry" />
        </mxCell>
        <mxCell id="1vW7YTsPECzE2WoDe3he-18" style="edgeStyle=orthogonalEdgeStyle;rounded=0;orthogonalLoop=1;jettySize=auto;html=1;exitX=0.5;exitY=0;exitDx=0;exitDy=0;endArrow=cross;endFill=0;strokeColor=#FF0000;entryX=0.5;entryY=1;entryDx=0;entryDy=0;" edge="1" parent="1vW7YTsPECzE2WoDe3he-22" source="1vW7YTsPECzE2WoDe3he-12" target="1vW7YTsPECzE2WoDe3he-17">
          <mxGeometry relative="1" as="geometry">
            <mxPoint x="617.0212765957444" y="338.40181818181816" as="sourcePoint" />
            <mxPoint x="500" y="287.9472727272729" as="targetPoint" />
          </mxGeometry>
        </mxCell>
        <mxCell id="1vW7YTsPECzE2WoDe3he-55" value="" style="verticalLabelPosition=bottom;verticalAlign=top;html=1;shape=mxgraph.basic.x;fillColor=#FF0000;movable=1;resizable=1;rotatable=1;deletable=1;editable=1;locked=0;connectable=1;" vertex="1" parent="1vW7YTsPECzE2WoDe3he-22">
          <mxGeometry x="276.16999999999996" y="85.90999999999997" width="30.89" height="29.32" as="geometry" />
        </mxCell>
        <mxCell id="1vW7YTsPECzE2WoDe3he-57" value="MAGASINS" style="rounded=1;whiteSpace=wrap;html=1;fontSize=12;glass=0;strokeWidth=1;shadow=0;" vertex="1" parent="1vW7YTsPECzE2WoDe3he-22">
          <mxGeometry x="168.50851063829788" y="175.91181818181815" width="112.34042553191489" height="33.63636363636364" as="geometry" />
        </mxCell>
        <mxCell id="1vW7YTsPECzE2WoDe3he-58" value="Attention si vous modifiez le schéma global après avoir affiné les modifications sur les schémas centrale, vous aller écraser les modifications centrale (cf schema modification schéma global)" style="text;html=1;align=center;verticalAlign=middle;whiteSpace=wrap;rounded=0;fillColor=#f8cecc;strokeColor=#b85450;" vertex="1" parent="WIyWlLk6GJQsqaUBKTNV-1">
          <mxGeometry x="20" y="620" width="220" height="95" as="geometry" />
        </mxCell>
      </root>
    </mxGraphModel>
  </diagram>
</mxfile>
